<svg xmlns="http://www.w3.org/2000/svg" xmlns:xlink="http://www.w3.org/1999/xlink" viewBox="0 0 57.77 47.53"><defs><style>.cls-1{fill:url(#linear-gradient);}.cls-2{fill:url(#linear-gradient-2);}.cls-3{fill:url(#linear-gradient-3);}</style><linearGradient id="linear-gradient" y1="6.44" x2="57.69" y2="6.44" gradientUnits="userSpaceOnUse"><stop offset="0" stop-color="#e2e39b"/><stop offset="0.65" stop-color="#f597a5"/><stop offset="1" stop-color="#ce67a8"/></linearGradient><linearGradient id="linear-gradient-2" y1="23.77" x2="57.77" y2="23.77" xlink:href="#linear-gradient"/><linearGradient id="linear-gradient-3" y1="41.09" x2="57.69" y2="41.09" xlink:href="#linear-gradient"/></defs><title>control_icon_2</title><g id="Layer_2" data-name="Layer 2"><g id="Layer_5" data-name="Layer 5"><path class="cls-1" d="M.48,7H22.73l.14.79c.5,2.88,2.63,5.06,5,5.06s4.45-2.08,5-5.05L32.91,7H57.22a.54.54,0,0,0,.47-.59.54.54,0,0,0-.47-.59H33l-.14-.79c-.5-2.88-2.63-5.06-5-5.06s-4.45,2.08-5,5.05l-.13.79H.48A.54.54,0,0,0,0,6.44.54.54,0,0,0,.48,7ZM27.89,1.28c2.32,0,4.2,2.36,4.2,5.25s-1.88,5.25-4.2,5.25-4.2-2.36-4.2-5.25S25.54,1.28,27.89,1.28Z"/><path class="cls-2" d="M.48,24.36H10.68l.14.79c.5,2.88,2.63,5.06,5,5.06s4.45-2.08,5-5.05l.13-.79H57.29a.61.61,0,0,0,0-1.19H20.87l-.14-.79c-.5-2.88-2.63-5.06-5-5.06s-4.45,2.08-5,5.05l-.13.79H.48a.61.61,0,0,0,0,1.19Zm15.3-5.84c2.32,0,4.2,2.36,4.2,5.25S18.09,29,15.78,29s-4.2-2.36-4.2-5.25S13.5,18.52,15.78,18.52Z"/><path class="cls-3" d="M57.22,40.5H45.45l-.14-.79c-.5-2.88-2.63-5.06-5-5.06s-4.45,2.08-5,5.05l-.13.79H.48a.61.61,0,0,0,0,1.19H35.2l.14.79c.5,2.88,2.63,5.06,5,5.06s4.45-2.08,5-5.05l.13-.79H57.22a.61.61,0,0,0,0-1.19ZM40.29,46.43c-2.32,0-4.2-2.36-4.2-5.25s1.88-5.25,4.2-5.25,4.2,2.36,4.2,5.25S42.64,46.43,40.29,46.43Z"/></g></g></svg>