<svg xmlns="http://www.w3.org/2000/svg" xmlns:xlink="http://www.w3.org/1999/xlink" viewBox="0 0 88.28 68.44"><defs><style>.cls-1,.cls-2,.cls-3,.cls-4,.cls-5,.cls-6{fill:none;stroke-linecap:round;stroke-linejoin:round;stroke-width:1.5px;}.cls-1{stroke:url(#linear-gradient);}.cls-2{stroke:url(#linear-gradient-2);}.cls-3{stroke:url(#linear-gradient-3);}.cls-4{stroke:url(#linear-gradient-4);}.cls-5{stroke:url(#linear-gradient-5);}.cls-6{stroke:url(#linear-gradient-6);}</style><linearGradient id="linear-gradient" x1="-47.23" y1="47.48" x2="4.99" y2="47.48" gradientTransform="matrix(-1, 0, 0, 1, 41.05, 0)" gradientUnits="userSpaceOnUse"><stop offset="0" stop-color="#e2e39b"/><stop offset="0.65" stop-color="#f597a5"/><stop offset="1" stop-color="#ce67a8"/></linearGradient><linearGradient id="linear-gradient-2" x1="-47.2" y1="95.02" x2="-9.52" y2="95.02" gradientTransform="translate(41.05 148.53) rotate(180)" xlink:href="#linear-gradient"/><linearGradient id="linear-gradient-3" x1="-83.28" y1="34.89" x2="-43.38" y2="34.89" gradientTransform="translate(83.28)" xlink:href="#linear-gradient"/><linearGradient id="linear-gradient-4" x1="-83.25" y1="98.74" x2="-45.39" y2="98.74" gradientTransform="matrix(1, 0, 0, -1, 83.28, 148.53)" xlink:href="#linear-gradient"/><linearGradient id="linear-gradient-5" x1="-70.76" y1="9.26" x2="-15.49" y2="9.26" gradientTransform="matrix(0, 1, 1, 0, 29.24, 70.76)" xlink:href="#linear-gradient"/><linearGradient id="linear-gradient-6" x1="-70.73" y1="125.21" x2="-31.13" y2="125.21" gradientTransform="translate(177.76 70.76) rotate(90)" xlink:href="#linear-gradient"/></defs><title>flexibility_icon_2</title><g id="Layer_2" data-name="Layer 2"><g id="Layer_5" data-name="Layer 5"><path class="cls-1" d="M36.86,67.69A29.68,29.68,0,0,1,40.3,51.38C48.88,35.8,69.62,34.81,71.15,34.76c1,0,1.81,0,2.4,0V27.28l14,14"/><path class="cls-2" d="M51.31,65.69c0-1.46.41-9.09,6.15-13.73,4.67-3.78,11-4,13.81-4.13.94,0,1.72,0,2.25,0V55.3l14-14"/><path class="cls-3" d="M39.15,42.65c-5.41-3.88-12.92-7.73-22-8q-1.22,0-2.4,0V27.13l-14,14"/><path class="cls-4" d="M37.15,58.39a22.67,22.67,0,0,0-6.33-6.58A25.78,25.78,0,0,0,17,47.68c-.94,0-1.72,0-2.25,0v7.48l-14-14"/><path class="cls-5" d="M38.87,54.53q.09-10,.13-20.21,0-9.85,0-19.59H31.51l14-14"/><path class="cls-6" d="M52.05,38.88V14.76h7.48l-14-14"/></g></g></svg>