<svg xmlns="http://www.w3.org/2000/svg" xmlns:xlink="http://www.w3.org/1999/xlink" viewBox="0 0 87.77 67.94"><defs><style>.cls-1{fill:none;}.cls-2{fill:url(#linear-gradient);}.cls-3{fill:url(#linear-gradient-2);}.cls-4{fill:url(#linear-gradient-3);}.cls-5{fill:url(#linear-gradient-4);}.cls-6{fill:url(#linear-gradient-5);}.cls-7{fill:url(#linear-gradient-6);}.cls-8{fill:url(#linear-gradient-7);}.cls-9{fill:url(#linear-gradient-8);}.cls-10{fill:url(#linear-gradient-9);}.cls-11{fill:url(#linear-gradient-10);}.cls-12{fill:url(#linear-gradient-11);}.cls-13{fill:url(#linear-gradient-12);}.cls-14{fill:url(#linear-gradient-13);}.cls-15{fill:url(#linear-gradient-14);}.cls-16{fill:url(#linear-gradient-15);}.cls-17{fill:url(#linear-gradient-16);}.cls-18{fill:url(#linear-gradient-17);}.cls-19{fill:url(#linear-gradient-18);}.cls-20{fill:url(#linear-gradient-19);}.cls-21{fill:url(#linear-gradient-20);}.cls-22{fill:url(#linear-gradient-21);}</style><linearGradient id="linear-gradient" x1="-83.28" y1="34.37" x2="-44.44" y2="34.37" gradientTransform="translate(83.28)" gradientUnits="userSpaceOnUse"><stop offset="0" stop-color="#e2e39b"/><stop offset="0.65" stop-color="#f597a5"/><stop offset="1" stop-color="#ce67a8"/></linearGradient><linearGradient id="linear-gradient-2" x1="-83.22" y1="230.07" x2="-45.86" y2="230.07" gradientTransform="matrix(1, 0, 0, -1, 83.28, 279.8)" xlink:href="#linear-gradient"/><linearGradient id="linear-gradient-3" x1="-83.29" y1="40.89" x2="-44.44" y2="40.89" xlink:href="#linear-gradient"/><linearGradient id="linear-gradient-4" x1="-83.25" y1="238.92" x2="-45.89" y2="238.92" gradientTransform="matrix(1, 0, 0, -1, 83.28, 279.8)" xlink:href="#linear-gradient"/><linearGradient id="linear-gradient-5" x1="-199.46" y1="137.57" x2="-144.68" y2="137.57" gradientTransform="matrix(0, 1, 1, 0, -99.46, 199.46)" xlink:href="#linear-gradient"/><linearGradient id="linear-gradient-6" x1="-83.29" y1="41.81" x2="-44.44" y2="41.81" xlink:href="#linear-gradient"/><linearGradient id="linear-gradient-7" x1="-199.46" y1="137.98" x2="-144.68" y2="137.98" gradientTransform="matrix(0, 1, 1, 0, -99.46, 199.46)" xlink:href="#linear-gradient"/><linearGradient id="linear-gradient-8" x1="-199.4" y1="127.83" x2="-159.17" y2="127.83" gradientTransform="translate(180.35 199.46) rotate(90)" xlink:href="#linear-gradient"/><linearGradient id="linear-gradient-9" x1="-199.46" y1="144.73" x2="-144.68" y2="144.73" gradientTransform="matrix(0, 1, 1, 0, -99.46, 199.46)" xlink:href="#linear-gradient"/><linearGradient id="linear-gradient-10" x1="-199.43" y1="135.08" x2="-159.2" y2="135.08" gradientTransform="translate(180.35 199.46) rotate(90)" xlink:href="#linear-gradient"/><linearGradient id="linear-gradient-11" x1="-172.83" y1="61.02" x2="-121.11" y2="61.02" gradientTransform="matrix(-1, 0, 0, 1, -85.06, 0)" xlink:href="#linear-gradient"/><linearGradient id="linear-gradient-12" x1="-172.83" y1="40.43" x2="-121.1" y2="40.43" gradientTransform="matrix(-1, 0, 0, 1, -85.06, 0)" xlink:href="#linear-gradient"/><linearGradient id="linear-gradient-13" x1="-83.25" y1="221.75" x2="-45.89" y2="221.75" gradientTransform="matrix(1, 0, 0, -1, 83.28, 279.8)" xlink:href="#linear-gradient"/><linearGradient id="linear-gradient-14" x1="-172.83" y1="58.06" x2="-121.11" y2="58.06" gradientTransform="matrix(-1, 0, 0, 1, -85.06, 0)" xlink:href="#linear-gradient"/><linearGradient id="linear-gradient-15" x1="-199.46" y1="138.07" x2="-144.68" y2="138.07" gradientTransform="matrix(0, 1, 1, 0, -99.46, 199.46)" xlink:href="#linear-gradient"/><linearGradient id="linear-gradient-16" x1="-172.83" y1="53.3" x2="-121.11" y2="53.3" gradientTransform="matrix(-1, 0, 0, 1, -85.06, 0)" xlink:href="#linear-gradient"/><linearGradient id="linear-gradient-17" x1="-199.43" y1="128.7" x2="-159.2" y2="128.7" gradientTransform="translate(180.35 199.46) rotate(90)" xlink:href="#linear-gradient"/><linearGradient id="linear-gradient-18" x1="-172.83" y1="39.64" x2="-121.11" y2="39.64" gradientTransform="matrix(-1, 0, 0, 1, -85.06, 0)" xlink:href="#linear-gradient"/><linearGradient id="linear-gradient-19" x1="-172.77" y1="225.58" x2="-135.12" y2="225.58" gradientTransform="translate(-85.06 279.8) rotate(180)" xlink:href="#linear-gradient"/><linearGradient id="linear-gradient-20" x1="-172.83" y1="41.03" x2="-121.11" y2="41.03" gradientTransform="matrix(-1, 0, 0, 1, -85.06, 0)" xlink:href="#linear-gradient"/><linearGradient id="linear-gradient-21" x1="-172.8" y1="238.77" x2="-135.12" y2="238.77" gradientTransform="translate(-85.06 279.8) rotate(180)" xlink:href="#linear-gradient"/></defs><title>flexibility_icon_1</title><g id="Layer_2" data-name="Layer 2"><g id="Layer_5" data-name="Layer 5"><path class="cls-1" d="M38.06,42.32c-6.83-4.7-14-7.21-21.2-7.46-.78,0-1.58,0-2.37,0a.47.47,0,0,1-.36-.14.5.5,0,0,1-.15-.36V28.09L1.18,40.87,14,53.69V47.42a.5.5,0,0,1,.48-.5c.76,0,1.53,0,2.29,0a26.26,26.26,0,0,1,14.07,4.22A23.1,23.1,0,0,1,37,57.47a28.91,28.91,0,0,1,1.07-3.36q.05-5.86.09-11.75A.46.46,0,0,1,38.06,42.32Z"/><path class="cls-1" d="M51.8,14h6.27L45.25,1.18,32.46,14h6.27a.5.5,0,0,1,.5.5q0,9.75,0,19.6,0,8.93-.11,17.77c.16-.32.31-.64.48-1A29.2,29.2,0,0,1,51.15,39.58L51.3,14.5A.5.5,0,0,1,51.8,14Z"/><path class="cls-2" d="M.18,40.57a.5.5,0,0,1,.71,0l.3.3L14,28.09v6.27a.5.5,0,0,0,.15.36.47.47,0,0,0,.36.14c.79,0,1.59,0,2.37,0,7.24.25,14.38,2.76,21.2,7.46a.46.46,0,0,0,.14,0c0-.38,0-.76,0-1.14a40.37,40.37,0,0,0-21.32-7.36c-.63,0-1.27,0-1.92,0v-7a.5.5,0,0,0-.85-.35l-14,14a.49.49,0,0,0-.08.59A.5.5,0,0,1,.18,40.57Z"/><path class="cls-3" d="M30.84,51.14a26.26,26.26,0,0,0-14.07-4.22c-.76,0-1.53,0-2.29,0a.5.5,0,0,0-.48.5v6.27L1.18,40.87l-.33.33a.5.5,0,0,1-.71,0,.49.49,0,0,1-.08-.12.49.49,0,0,0,.12.2l14,14A.5.5,0,0,0,15,54.9v-7c.57,0,1.15,0,1.73,0a25.32,25.32,0,0,1,13.54,4,22.19,22.19,0,0,1,6.2,6.44.48.48,0,0,0,.29.2c.08-.38.18-.75.28-1.13A23.1,23.1,0,0,0,30.84,51.14Z"/><path class="cls-4" d="M.85,41.21l.33-.33-.3-.3a.5.5,0,0,0-.82.51.49.49,0,0,0,.08.12A.5.5,0,0,0,.85,41.21Z"/><path class="cls-5" d="M.85,41.21l.33-.33-.3-.3a.5.5,0,0,0-.82.51.49.49,0,0,0,.08.12A.5.5,0,0,0,.85,41.21Z"/><path class="cls-6" d="M38.75,42.19a.5.5,0,0,1-.41.22.52.52,0,0,1-.14,0q0,5.89-.09,11.75c.3-.78.64-1.54,1-2.28q.08-8.85.11-17.77,0-9.85,0-19.6a.5.5,0,0,0-.5-.5H32.46L45.25,1.18,45,.88a.5.5,0,0,1,.51-.82.49.49,0,0,0-.59.08l-14,14a.5.5,0,0,0,.35.85h7q0,9.5,0,19.09,0,3.59,0,7.16l.42.27A.5.5,0,0,1,38.75,42.19Z"/><path class="cls-7" d="M38.34,42.4a.5.5,0,0,0,.28-.91l-.42-.27c0,.38,0,.76,0,1.14A.52.52,0,0,0,38.34,42.4Z"/><path class="cls-8" d="M38.34,42.4a.5.5,0,0,0,.28-.91l-.42-.27c0,.38,0,.76,0,1.14A.52.52,0,0,0,38.34,42.4Z"/><path class="cls-9" d="M45.58.85l-.33.33L58.07,14H51.8a.5.5,0,0,0-.5.5l-.15,25.08,1-.55.14-24h7a.5.5,0,0,0,.35-.85l-14-14a.49.49,0,0,0-.2-.12.48.48,0,0,1,.12.08A.5.5,0,0,1,45.58.85Z"/><path class="cls-10" d="M45,.18a.5.5,0,0,0,0,.71l.3.3.33-.33a.5.5,0,0,0,0-.71.48.48,0,0,0-.12-.08A.5.5,0,0,0,45,.18Z"/><path class="cls-11" d="M45,.18a.5.5,0,0,0,0,.71l.3.3.33-.33a.5.5,0,0,0,0-.71.48.48,0,0,0-.12-.08A.5.5,0,0,0,45,.18Z"/><path class="cls-12" d="M38.61,54.77a.5.5,0,0,1-.5-.5c0-.05,0-.1,0-.16A28.91,28.91,0,0,0,37,57.47c.09.13.19.26.28.39a.48.48,0,0,1-.56.74,33.12,33.12,0,0,0-.65,8.86.5.5,0,0,0,.5.47h0a.5.5,0,0,0,.47-.53A30.67,30.67,0,0,1,39,54.56a.49.49,0,0,1-.4.21Z"/><path class="cls-13" d="M39.1,54.35a26.08,26.08,0,0,1,1.38-3C49,35.9,70,35,70.92,35s1.58,0,2.37,0a.48.48,0,0,0,.36-.14.5.5,0,0,0,.15-.36V28.23L86.59,41l.3-.3a.5.5,0,0,1,.82.51.49.49,0,0,0-.08-.59l-14-14a.5.5,0,0,0-.85.35v7c-.64,0-1.28,0-1.92,0a48.12,48.12,0,0,0-18.73,5v.73a.5.5,0,0,1-.5.5h0a.5.5,0,0,1-.5-.5v-.17A29.2,29.2,0,0,0,39.6,50.88c-.17.31-.32.63-.48,1"/><path class="cls-14" d="M37.16,58.56a.5.5,0,0,0,.15-.69c-.09-.14-.19-.26-.28-.39-.1.37-.2.75-.28,1.13a.4.4,0,0,0,.41,0Z"/><path class="cls-15" d="M37.16,58.56a.5.5,0,0,0,.15-.69c-.09-.14-.19-.26-.28-.39-.1.37-.2.75-.28,1.13a.4.4,0,0,0,.41,0Z"/><path class="cls-16" d="M39.13,51.84c-.37.74-.71,1.5-1,2.28,0,.05,0,.1,0,.16a.5.5,0,0,0,.5.5h0a.49.49,0,0,0,.4-.21l.09-.22a.45.45,0,0,0,0-.07C39.12,53.47,39.12,52.65,39.13,51.84Z"/><path class="cls-17" d="M39.13,51.84c-.37.74-.71,1.5-1,2.28,0,.05,0,.1,0,.16a.5.5,0,0,0,.5.5h0a.49.49,0,0,0,.4-.21l.09-.22a.45.45,0,0,0,0-.07C39.12,53.47,39.12,52.65,39.13,51.84Z"/><path class="cls-18" d="M51.15,39.75a.5.5,0,0,0,.5.5h0a.5.5,0,0,0,.5-.5V39l-1,.55Z"/><path class="cls-19" d="M51.15,39.75a.5.5,0,0,0,.5.5h0a.5.5,0,0,0,.5-.5V39l-1,.55Z"/><path class="cls-20" d="M86.92,41.35,86.59,41,73.76,53.84V47.56a.5.5,0,0,0-.48-.5c-.75,0-1.52,0-2.29,0-2.25.09-9.09.36-14.09,4.24-6.31,4.89-6.83,13.19-6.84,15.62a.5.5,0,0,0,.5.5h0a.5.5,0,0,0,.5-.5c0-2.31.5-10.22,6.45-14.83,4.75-3.69,11.35-3.94,13.52-4,.58,0,1.15,0,1.73,0v7a.5.5,0,0,0,.85.35l14-14a.49.49,0,0,0,.12-.2.49.49,0,0,1-.08.12A.5.5,0,0,1,86.92,41.35Z"/><path class="cls-21" d="M87.59,40.72a.5.5,0,0,0-.71,0l-.3.3.33.33a.5.5,0,0,0,.71,0,.49.49,0,0,0,.08-.12A.5.5,0,0,0,87.59,40.72Z"/><path class="cls-22" d="M87.59,40.72a.5.5,0,0,0-.71,0l-.3.3.33.33a.5.5,0,0,0,.71,0,.49.49,0,0,0,.08-.12A.5.5,0,0,0,87.59,40.72Z"/></g></g></svg>