<svg xmlns="http://www.w3.org/2000/svg" xmlns:xlink="http://www.w3.org/1999/xlink" viewBox="0 0 72.94 47.16"><defs><style>.cls-1,.cls-2{fill:none;stroke-linejoin:round;}.cls-1{stroke:url(#linear-gradient);}.cls-2{stroke:url(#linear-gradient-2);}.cls-3{fill:url(#linear-gradient-3);}</style><linearGradient id="linear-gradient" y1="23.58" x2="72.94" y2="23.58" gradientUnits="userSpaceOnUse"><stop offset="0" stop-color="#e2e39b"/><stop offset="0.65" stop-color="#f597a5"/><stop offset="1" stop-color="#ce67a8"/></linearGradient><linearGradient id="linear-gradient-2" x1="10.74" y1="18.82" x2="10.74" y2="18.82" xlink:href="#linear-gradient"/><linearGradient id="linear-gradient-3" x1="7.8" y1="25.09" x2="26.9" y2="25.09" xlink:href="#linear-gradient"/></defs><title>limitless_icon_2</title><g id="Layer_2" data-name="Layer 2"><g id="Layer_5" data-name="Layer 5"><path class="cls-1" d="M35,17.37C28.29,4.78,9.45-4.1,2.29,13.25c-5.37,13,2.19,30.13,11.25,32.81,11,3.23,17.18-7.12,21-20.37,6-20.77,26.72-38.47,36.53-11.44,4.11,11.33-1.58,27.53-11.3,29.16-8.53,1.43-16.31-8.93-16.91-9.74l-4.21,4.21V26.06H49l-3.46,3.46a29.14,29.14,0,0,0,2.55,2.55c2.62,2.31,6.49,5.73,10.05,5.48,4.85-.34,8.69-7.44,9.37-13.25S66.1,9.69,60.25,7.84,45.83,11,42.89,21.1"/><path class="cls-2" d="M10.74,18.82"/><path class="cls-3" d="M15.17,12h0c1.82,0,3.93,1,6.27,3a13.85,13.85,0,0,1,4.45,8c.17,9.11-3.09,14.59-6.25,15.14a3.28,3.28,0,0,1-.55,0c-2.25,0-4.46-2.23-5.65-3.42a17,17,0,0,1-3-18.95c.6-1.19,1.52-3,3.33-3.63A4.23,4.23,0,0,1,15.17,12m0-1a5.21,5.21,0,0,0-1.76.3c-2.14.77-3.2,2.77-3.88,4.11a18.08,18.08,0,0,0,3.2,20.11c1.29,1.3,3.7,3.72,6.36,3.72a4.27,4.27,0,0,0,.72-.06c4-.68,7.28-7.07,7.08-16.22a15,15,0,0,0-4.8-8.68c-.85-.73-3.8-3.27-6.92-3.27Z"/></g></g></svg>