<svg xmlns="http://www.w3.org/2000/svg" xmlns:xlink="http://www.w3.org/1999/xlink" viewBox="0 0 38.31 50.63"><defs><style>.cls-1{fill:none;}.cls-2{fill:url(#linear-gradient);}.cls-3{fill:url(#linear-gradient-2);}</style><linearGradient id="linear-gradient" x1="13.36" y1="35.96" x2="24.95" y2="35.96" gradientUnits="userSpaceOnUse"><stop offset="0" stop-color="#e2e39b"/><stop offset="0.65" stop-color="#f597a5"/><stop offset="1" stop-color="#ce67a8"/></linearGradient><linearGradient id="linear-gradient-2" x1="-0.26" y1="25.31" x2="38.58" y2="25.31" xlink:href="#linear-gradient"/></defs><title>secure_icon</title><g id="Layer_2" data-name="Layer 2"><g id="Layer_5" data-name="Layer 5"><path class="cls-1" d="M19.16,8.56a6.06,6.06,0,0,0-6.06,6.06v6.16H25.21V14.61A6.06,6.06,0,0,0,19.16,8.56Z"/><path class="cls-1" d="M20.9,35.36a3,3,0,1,0-3.48,0A1.51,1.51,0,0,1,18,37l-1.4,5.07h5.11L20.31,37A1.51,1.51,0,0,1,20.9,35.36Z"/><path class="cls-1" d="M34.3,23.8H4A1.52,1.52,0,0,0,2.5,25.31v21.3A1.52,1.52,0,0,0,4,48.13H34.3a1.52,1.52,0,0,0,1.51-1.51V25.31A1.52,1.52,0,0,0,34.3,23.8ZM25.16,43.18A1.51,1.51,0,0,1,23.7,45.1H14.61a1.51,1.51,0,0,1-1.46-1.92l1.67-6.06a6.06,6.06,0,1,1,8.66,0Z"/><path class="cls-1" d="M10.07,14.61a9.09,9.09,0,0,1,18.17,0v6.16h3V14.61A12.11,12.11,0,1,0,7,14.61v6.16h3Z"/><path class="cls-2" d="M24.65,43.32,23,37.26,22.89,37l.21-.22a5.53,5.53,0,1,0-7.9,0l.21.22-.08.29-1.67,6.06a1,1,0,0,0,.95,1.25H23.7a1,1,0,0,0,.95-1.25Zm-3.83-6.46,1.4,5.07.19.67H15.9l.19-.67,1.4-5.07a1,1,0,0,0-.38-1.07,3.56,3.56,0,1,1,4.1,0A1,1,0,0,0,20.82,36.86Z"/><path class="cls-3" d="M34.3,21.3h-.53V14.61a14.61,14.61,0,1,0-29.22,0V21.3H4a4,4,0,0,0-4,4v21.3a4,4,0,0,0,4,4H34.3a4,4,0,0,0,4-4V25.31A4,4,0,0,0,34.3,21.3ZM6.51,20.77V14.61a12.64,12.64,0,1,1,25.29,0V21.3H27.71V14.61a8.56,8.56,0,0,0-17.11,0V21.3H6.51Zm19.23-6.16V21.3H12.57V14.61a6.59,6.59,0,1,1,13.17,0Zm10.6,32a2,2,0,0,1-2,2H4a2,2,0,0,1-2-2V25.31a2,2,0,0,1,2-2H34.3a2,2,0,0,1,2,2Z"/></g></g></svg>