<svg xmlns="http://www.w3.org/2000/svg" xmlns:xlink="http://www.w3.org/1999/xlink" viewBox="0 0 58.1 56.5"><defs><style>.cls-1{fill:url(#linear-gradient);}.cls-2{fill:url(#linear-gradient-2);}.cls-3{fill:url(#linear-gradient-3);}.cls-4{fill:url(#linear-gradient-4);}.cls-5{fill:url(#linear-gradient-5);}.cls-6{fill:url(#linear-gradient-6);}</style><linearGradient id="linear-gradient" x1="27.2" y1="29.3" x2="42.69" y2="29.3" gradientUnits="userSpaceOnUse"><stop offset="0" stop-color="#e2e39b"/><stop offset="0.65" stop-color="#f597a5"/><stop offset="1" stop-color="#ce67a8"/></linearGradient><linearGradient id="linear-gradient-2" x1="4.2" y1="30.9" x2="23.5" y2="30.9" xlink:href="#linear-gradient"/><linearGradient id="linear-gradient-3" x1="0" y1="22.5" x2="19.3" y2="22.5" xlink:href="#linear-gradient"/><linearGradient id="linear-gradient-4" x1="0" y1="39.3" x2="19.3" y2="39.3" xlink:href="#linear-gradient"/><linearGradient id="linear-gradient-5" x1="14.3" y1="28.25" x2="58.1" y2="28.25" xlink:href="#linear-gradient"/><linearGradient id="linear-gradient-6" x1="20.33" y1="31.4" x2="54" y2="31.4" xlink:href="#linear-gradient"/></defs><title>speed_icon_4</title><g id="Layer_2" data-name="Layer 2"><g id="Layer_5" data-name="Layer 5"><path class="cls-1" d="M42.4,21.8a1,1,0,0,0-1.4,0l-5.6,5.6a5,5,0,0,0-2.9-.9,5.23,5.23,0,1,0,5.3,5.3,4.53,4.53,0,0,0-1-3l5.5-5.5A1,1,0,0,0,42.4,21.8ZM34.9,34.1a3.52,3.52,0,0,1-4.7,0,3.45,3.45,0,0,1-1-2.3,2.9,2.9,0,0,1,1-2.3,3.52,3.52,0,0,1,4.7,0,3.45,3.45,0,0,1,1,2.3A3.73,3.73,0,0,1,34.9,34.1Z"/><path class="cls-2" d="M4.2,30.9a.94.94,0,0,0,1,1H22.5a1,1,0,0,0,0-2H5.2A.94.94,0,0,0,4.2,30.9Z"/><path class="cls-3" d="M1,23.5H18.3a1,1,0,0,0,0-2H1a1,1,0,0,0,0,2Z"/><path class="cls-4" d="M19.3,39.3a.94.94,0,0,0-1-1H1a1,1,0,0,0,0,2H18.3A.94.94,0,0,0,19.3,39.3Z"/><path class="cls-5" d="M50.9,13.8l1-1a2.93,2.93,0,0,0,1.6.4,3.37,3.37,0,0,0,3.4-3.4,3.29,3.29,0,0,0-3.3-3.4,3.37,3.37,0,0,0-3.4,3.4,2.6,2.6,0,0,0,.4,1.5l-1.1,1.1A24.71,24.71,0,0,0,33.9,6.2V2h3.6a.94.94,0,0,0,1-1,.94.94,0,0,0-1-1H28.4a.94.94,0,0,0-1,1,.94.94,0,0,0,1,1h3.5V6.2a25,25,0,0,0-17.3,7.9A1,1,0,0,0,16,15.5a23.21,23.21,0,0,1,32.8-1h0a23,23,0,0,1,7.3,16.8A23.19,23.19,0,0,1,16.5,47.7a1,1,0,0,0-1.4,1.4,25,25,0,0,0,17.8,7.4A25.22,25.22,0,0,0,58.1,31.3,24.64,24.64,0,0,0,50.9,13.8Zm2.7-5.4a1.4,1.4,0,1,1,0,2.8,1.61,1.61,0,0,1-.9-.3c0-.1-.1-.1-.1-.2a.35.35,0,0,0-.2-.1,1.08,1.08,0,0,1-.2-.8A1.37,1.37,0,0,1,53.6,8.4Z"/><path class="cls-6" d="M20.8,47.3a1,1,0,0,0,.3,1.4,21,21,0,1,0-.4-34.3,1.08,1.08,0,0,0-.2,1.4,1.06,1.06,0,0,0,1.4.2A18.42,18.42,0,0,1,33,12.4a19,19,0,1,1,0,38,18.31,18.31,0,0,1-10.7-3.3A1.17,1.17,0,0,0,20.8,47.3Z"/></g></g></svg>